<svg xmlns="http://www.w3.org/2000/svg" version="1.1" xmlns:xlink="http://www.w3.org/1999/xlink" xmlns:svgjs="http://svgjs.dev/svgjs" width="2000" height="1247" viewBox="0 0 2000 1247"><g transform="matrix(1,0,0,1,-1.2121212121212466,0.504858299595071)"><svg viewBox="0 0 396 247" data-background-color="#ffffff" preserveAspectRatio="xMidYMid meet" height="1247" width="2000" xmlns="http://www.w3.org/2000/svg" xmlns:xlink="http://www.w3.org/1999/xlink"><g id="tight-bounds" transform="matrix(1,0,0,1,0.2400000000000091,-0.09999999999999432)"><svg viewBox="0 0 395.52 247.2" height="247.2" width="395.52"><g><svg></svg></g><g><svg viewBox="0 0 395.52 247.2" height="247.2" width="395.52"><g><path d="M55.039 247.2l26.403-45.732 5.488 0-23.509 40.719h268.678l-23.509-40.719 5.488 0 26.403 45.732zM197.76 0l26.403 45.732-5.487 0-20.916-36.227-20.916 36.227-5.487 0z" fill="#ffffff" fill-rule="nonzero" stroke="none" stroke-width="1" stroke-linecap="butt" stroke-linejoin="miter" stroke-miterlimit="10" stroke-dasharray="" stroke-dashoffset="0" font-family="none" font-weight="none" font-size="none" text-anchor="none" style="mix-blend-mode: normal" data-fill-palette-color="tertiary"></path></g><g transform="matrix(1,0,0,1,6.221933445082698,67.97999999999999)"><svg viewBox="0 0 383.0761331098346 111.24" height="111.24" width="383.0761331098346"><g><svg viewBox="0 0 529.4112159577915 153.73368" height="111.24" width="383.0761331098346"><g transform="matrix(1,0,0,1,0,21.24684)"><svg viewBox="0 0 349.41644171779143 111.24" height="111.24" width="349.41644171779143"><g id="textblocktransform"><svg viewBox="0 0 349.41644171779143 111.24" height="111.24" width="349.41644171779143" id="textblock"><g><svg viewBox="0 0 349.41644171779143 111.24" height="111.24" width="349.41644171779143"><g transform="matrix(1,0,0,1,0,0)"><svg width="349.41644171779143" viewBox="1.95 -38.85 153.58 48.900000000000006" height="111.24" data-palette-color="url(#796e64d5-6732-4a15-b82b-f4cd306d1479)"></svg></g></svg></g></svg></g></svg></g><g transform="matrix(1,0,0,1,375.6775359577914,0)"><svg viewBox="0 0 153.73368 153.73368" height="153.73368" width="153.73368"><g data-palette-color="#111111"><rect width="42.020539199999995" height="153.73368" fill="#ffffff" stroke="transparent" data-fill-palette-color="accent" x="0" fill-opacity="1"></rect><rect width="42.020539199999995" height="153.73368" fill="#ffffff" stroke="transparent" data-fill-palette-color="accent" x="51.24455999999999" fill-opacity="0.75"></rect><rect width="42.020539199999995" height="153.73368" fill="#ffffff" stroke="transparent" data-fill-palette-color="accent" x="102.48911999999999" fill-opacity="0.5"></rect></g></svg></g></svg></g></svg></g></svg></g><defs></defs><mask id="dbe89220-8de4-4d67-a1c4-7f9cf61a3027"><g id="SvgjsG6949"><svg viewBox="0 0 395.52 247.2" height="247.2" width="395.52"><g><svg></svg></g><g><svg viewBox="0 0 395.52 247.2" height="247.2" width="395.52"><g><path d="M55.039 247.2l26.403-45.732 5.488 0-23.509 40.719h268.678l-23.509-40.719 5.488 0 26.403 45.732zM197.76 0l26.403 45.732-5.487 0-20.916-36.227-20.916 36.227-5.487 0z" fill="black" fill-rule="nonzero" stroke="none" stroke-width="1" stroke-linecap="butt" stroke-linejoin="miter" stroke-miterlimit="10" stroke-dasharray="" stroke-dashoffset="0" font-family="none" font-weight="none" font-size="none" text-anchor="none" style="mix-blend-mode: normal"></path></g><g transform="matrix(1,0,0,1,6.221933445082698,67.97999999999999)"><svg viewBox="0 0 383.0761331098346 111.24" height="111.24" width="383.0761331098346"><g><svg viewBox="0 0 529.4112159577915 153.73368" height="111.24" width="383.0761331098346"><g transform="matrix(1,0,0,1,0,21.24684)"><svg viewBox="0 0 349.41644171779143 111.24" height="111.24" width="349.41644171779143"><g id="SvgjsG6948"><svg viewBox="0 0 349.41644171779143 111.24" height="111.24" width="349.41644171779143" id="SvgjsSvg6947"><g><svg viewBox="0 0 349.41644171779143 111.24" height="111.24" width="349.41644171779143"><g transform="matrix(1,0,0,1,0,0)"><svg width="349.41644171779143" viewBox="1.95 -38.85 153.58 48.900000000000006" height="111.24" data-palette-color="url(#796e64d5-6732-4a15-b82b-f4cd306d1479)"><path d="M29.05-7.55L31.35-2.6Q30.75-2.15 29.68-1.63 28.6-1.1 27.15-0.65 25.7-0.2 23.93 0.1 22.15 0.4 20.15 0.4L20.15 0.4Q15.9 0.4 12.53-1.07 9.15-2.55 6.8-5.05 4.45-7.55 3.2-10.85 1.95-14.15 1.95-17.85L1.95-17.85Q1.95-21.95 3.43-25.4 4.9-28.85 7.45-31.35 10-33.85 13.43-35.25 16.85-36.65 20.7-36.65L20.7-36.65Q22.15-36.65 23.65-36.45 25.15-36.25 26.48-35.9 27.8-35.55 28.83-35.08 29.85-34.6 30.4-34.1L30.4-34.1Q30-33.5 29.78-33.1 29.55-32.7 29.3-32.27 29.05-31.85 28.75-31.3 28.45-30.75 27.95-29.85L27.95-29.85Q27.3-30.3 26.43-30.6 25.55-30.9 24.6-31.1 23.65-31.3 22.68-31.4 21.7-31.5 20.9-31.5L20.9-31.5Q18-31.5 15.53-30.43 13.05-29.35 11.25-27.53 9.45-25.7 8.43-23.3 7.4-20.9 7.4-18.3L7.4-18.3Q7.4-15.75 8.38-13.4 9.35-11.05 11.08-9.2 12.8-7.35 15.23-6.25 17.65-5.15 20.55-5.15L20.55-5.15Q22.1-5.15 23.55-5.45 25-5.75 26.18-6.15 27.35-6.55 28.13-6.95 28.9-7.35 29.05-7.55L29.05-7.55ZM32.9-10.25L32.9-10.25Q32.9-12.55 33.77-14.58 34.65-16.6 36.15-18.13 37.65-19.65 39.62-20.55 41.6-21.45 43.85-21.45L43.85-21.45Q45.35-21.45 46.6-21.08 47.85-20.7 48.75-20.15 49.65-19.6 50.2-19 50.75-18.4 50.95-17.95L50.95-17.95 51.15-20.9 55.25-20.9 55.25 0 50.95 0 50.95-2.65Q50.7-2.25 50.15-1.7 49.6-1.15 48.72-0.68 47.85-0.2 46.65 0.15 45.45 0.5 43.9 0.5L43.9 0.5Q41.5 0.5 39.47-0.38 37.45-1.25 36-2.73 34.55-4.2 33.72-6.15 32.9-8.1 32.9-10.25ZM37.2-10.5L37.2-10.5Q37.2-9.05 37.72-7.8 38.25-6.55 39.15-5.65 40.05-4.75 41.3-4.23 42.55-3.7 44.05-3.7L44.05-3.7Q45.55-3.7 46.82-4.23 48.1-4.75 49.02-5.68 49.95-6.6 50.45-7.83 50.95-9.05 50.95-10.5L50.95-10.5Q50.95-11.95 50.45-13.18 49.95-14.4 49.02-15.3 48.1-16.2 46.82-16.73 45.55-17.25 44.05-17.25L44.05-17.25Q42.55-17.25 41.3-16.73 40.05-16.2 39.15-15.3 38.25-14.4 37.72-13.18 37.2-11.95 37.2-10.5ZM63.05-20.85L63.05-30.1 67.3-30.1 67.3-20.85 72.9-20.85 72.9-17.05 67.3-17.05 67.3 0 63.05 0 63.05-17.05 59.3-17.05 59.3-20.85 63.05-20.85ZM74.54-10.25L74.54-10.25Q74.54-12.55 75.42-14.58 76.29-16.6 77.79-18.13 79.29-19.65 81.27-20.55 83.24-21.45 85.49-21.45L85.49-21.45Q86.99-21.45 88.24-21.08 89.49-20.7 90.39-20.15 91.29-19.6 91.84-19 92.39-18.4 92.59-17.95L92.59-17.95 92.79-20.9 96.89-20.9 96.89 0 92.59 0 92.59-2.65Q92.34-2.25 91.79-1.7 91.24-1.15 90.37-0.68 89.49-0.2 88.29 0.15 87.09 0.5 85.54 0.5L85.54 0.5Q83.14 0.5 81.12-0.38 79.09-1.25 77.64-2.73 76.19-4.2 75.37-6.15 74.54-8.1 74.54-10.25ZM78.84-10.5L78.84-10.5Q78.84-9.05 79.37-7.8 79.89-6.55 80.79-5.65 81.69-4.75 82.94-4.23 84.19-3.7 85.69-3.7L85.69-3.7Q87.19-3.7 88.47-4.23 89.74-4.75 90.67-5.68 91.59-6.6 92.09-7.83 92.59-9.05 92.59-10.5L92.59-10.5Q92.59-11.95 92.09-13.18 91.59-14.4 90.67-15.3 89.74-16.2 88.47-16.73 87.19-17.25 85.69-17.25L85.69-17.25Q84.19-17.25 82.94-16.73 81.69-16.2 80.79-15.3 79.89-14.4 79.37-13.18 78.84-11.95 78.84-10.5ZM107.19-38.85L107.19 0 102.94 0 102.94-38.85 107.19-38.85ZM133.89-20.9L118.99 10.05 114.69 10.05Q115.39 8.6 116.01 7.28 116.64 5.95 117.26 4.58 117.89 3.2 118.54 1.73 119.19 0.25 119.99-1.45L119.99-1.45Q118.84-3.7 117.64-6.18 116.44-8.65 115.24-11.15 114.04-13.65 112.86-16.15 111.69-18.65 110.54-20.9L110.54-20.9 115.19-20.9Q116.99-17.35 118.16-14.9 119.34-12.45 120.11-10.68 120.89-8.9 121.36-7.65 121.84-6.4 122.19-5.35L122.19-5.35Q122.59-6.4 123.06-7.65 123.54-8.9 124.31-10.68 125.09-12.45 126.26-14.9 127.44-17.35 129.24-20.9L129.24-20.9 133.89-20.9ZM142.38-11.05L142.38-11.05Q140.63-13.55 138.76-16 136.88-18.45 135.19-20.9L135.19-20.9 140.44-20.9Q141.03-19.9 141.61-19.1 142.19-18.3 142.76-17.55 143.34-16.8 143.91-16.03 144.49-15.25 145.13-14.3L145.13-14.3Q146.38-16.15 147.49-17.57 148.59-19 149.88-20.9L149.88-20.9 154.63-20.9Q153.74-19.5 152.88-18.32 152.03-17.15 151.19-15.98 150.34-14.8 149.46-13.58 148.59-12.35 147.63-10.85L147.63-10.85Q148.53-9.65 149.56-8.25 150.59-6.85 151.63-5.43 152.69-4 153.69-2.6 154.69-1.2 155.53 0L155.53 0 150.09 0Q148.69-1.95 147.34-3.6 145.99-5.25 144.59-7.15L144.59-7.15Q143.28-5.25 142.03-3.6 140.78-1.95 139.49 0L139.49 0 134.74 0Q136.63-2.85 138.59-5.58 140.53-8.3 142.38-11.05Z" opacity="1" transform="matrix(1,0,0,1,0,0)" fill="white" class="wordmark-text-0" id="SvgjsPath6946"></path></svg></g></svg></g></svg></g></svg></g><g transform="matrix(1,0,0,1,375.6775359577914,0)"><svg viewBox="0 0 153.73368 153.73368" height="153.73368" width="153.73368"><g data-palette-color="#111111"><rect width="42.020539199999995" height="153.73368" fill="black" stroke="transparent" x="0" fill-opacity="1"></rect><rect width="42.020539199999995" height="153.73368" fill="black" stroke="transparent" x="51.24455999999999" fill-opacity="0.75"></rect><rect width="42.020539199999995" height="153.73368" fill="black" stroke="transparent" x="102.48911999999999" fill-opacity="0.5"></rect></g></svg></g></svg></g></svg></g></svg></g><defs><mask></mask></defs></svg><rect width="395.52" height="247.2" fill="black" stroke="none" visibility="hidden"></rect></g></mask><linearGradient x1="0" x2="1" y1="0.5" y2="0.5" id="796e64d5-6732-4a15-b82b-f4cd306d1479"><stop stop-color="#f00b51" offset="0"></stop><stop stop-color="#730062" offset="1"></stop></linearGradient><rect width="395.52" height="247.2" fill="#ffffff" mask="url(#dbe89220-8de4-4d67-a1c4-7f9cf61a3027)" data-fill-palette-color="primary"></rect></svg><rect width="395.52" height="247.2" fill="none" stroke="none" visibility="hidden"></rect></g></svg></g></svg>